<svg xmlns="http://www.w3.org/2000/svg" xmlns:xlink="http://www.w3.org/1999/xlink" version="1.1" x="0px" y="0px" viewBox="0 0 100 125" enable-background="new 0 0 100 100" xml:space="preserve"><g><path fill="#000000" d="M92.687,19.957h-66.42c-1.275,0-2.312,1.038-2.312,2.313v18.877c-1.577,0.632-3.061,1.429-4.498,2.205   c-1.074,0.579-2.185,1.179-3.34,1.713c-3.377,1.356-4.131,3.708-5.086,6.686l-0.084,0.261c-1.77,6.108-3.563,15.307-5.004,22.698   c-0.332,1.703-0.646,3.311-0.933,4.748c-0.053,0.265,0.119,0.523,0.384,0.576c0.033,0.007,0.065,0.01,0.097,0.01   c0.229,0,0.433-0.161,0.479-0.394c0.288-1.439,0.602-3.048,0.934-4.752c1.437-7.372,3.225-16.547,4.979-22.599l0.08-0.248   c0.912-2.843,1.57-4.897,4.53-6.081l0.023-0.01c1.188-0.548,2.315-1.156,3.406-1.745c1.358-0.733,2.652-1.43,4.033-2.01v10.334   c-0.197,0.187-0.397,0.375-0.601,0.567c-0.614,0.577-1.249,1.174-1.897,1.852c-1.243,1.187-1.624,2.72-1.992,4.203   c-0.311,1.252-0.605,2.435-1.398,3.321c-0.18,0.202-0.163,0.511,0.039,0.691c0.201,0.18,0.511,0.163,0.691-0.038   c0.955-1.067,1.292-2.425,1.618-3.738c0.351-1.412,0.682-2.747,1.726-3.738l0.017-0.017c0.632-0.662,1.26-1.252,1.867-1.823   c1.576-1.481,3.064-2.879,4.204-5.16c0.416-0.897,0.897-1.617,1.429-2.246c0.41,0.158,0.81,0.35,1.198,0.539   c0.396,0.193,0.806,0.392,1.215,0.546c0.057,0.021,0.115,0.031,0.172,0.031c0.198,0,0.385-0.121,0.458-0.318   c0.095-0.253-0.033-0.535-0.287-0.63c-0.366-0.138-0.737-0.318-1.131-0.509c-0.296-0.144-0.6-0.289-0.913-0.425   c0.336-0.329,0.689-0.639,1.056-0.944c0.834,0.677,2.128,1.345,2.688,1.589c0.063,0.027,0.13,0.041,0.195,0.041   c0.189,0,0.369-0.11,0.449-0.295c0.107-0.248-0.006-0.536-0.254-0.644c-0.512-0.223-1.579-0.784-2.298-1.323   c0.064-0.051,0.128-0.102,0.193-0.154c0.507-0.403,1.031-0.821,1.582-1.297c0.627-0.558,1.2-1.287,1.796-2.066   c0.677,1.256,2.84,1.883,3.103,1.955c0.382,0.103,0.747,0.15,1.096,0.15c1.449,0,2.63-0.803,3.653-1.732   c0,0.171-0.005,0.343-0.02,0.514c-0.269,2.125-1.814,4.168-3.178,5.971c-0.221,0.292-0.438,0.579-0.638,0.851   c-0.657,0.854-1.326,1.288-2.034,1.747c-0.404,0.262-0.822,0.533-1.25,0.884c-0.946,0.736-1.736,2.353-2.313,3.533   c-0.077,0.157-0.149,0.306-0.217,0.44c-1.143,2.285-1.894,4.876-2.436,8.397l0,0.001c0,0.003,0,0.006-0.001,0.009   c-0.267,1.664-0.293,3.411-0.319,5.1c-0.017,1.101-0.035,2.239-0.121,3.319c-0.271,4.076-3.031,6.847-5.489,7.385   c-0.264,0.058-0.431,0.319-0.373,0.583c0.05,0.229,0.252,0.385,0.478,0.385c0.035,0,0.07-0.004,0.105-0.011   c3.318-0.726,5.475-3.969,6.091-7.052c0.068-0.002,0.137-0.017,0.202-0.05c0.107-0.054,0.395-0.127,0.672-0.199   c0.837-0.215,1.985-0.51,2.48-1.214c0.912-1.295,1.079-3.117,1.108-3.85c1.12-0.608,1.75-2.141,1.874-4.569   c0.076-1.504-0.065-2.909-0.128-3.429c0.982-1.251,1.594-2.301,1.62-2.347c0.062-0.107,0.077-0.227,0.055-0.34h52.89   c1.275,0,2.312-1.038,2.312-2.313V22.27C95,20.994,93.962,19.957,92.687,19.957z M39.138,41.562   c-1.083-0.297-2.346-0.96-2.554-1.602c-0.04-0.121-0.064-0.307,0.096-0.573c1.013-1.263,2.099-2.366,3.448-2.522   c0.914-0.1,1.683,0.148,2.29,0.74c0.516,0.504,0.889,1.254,1.077,2.098C41.959,41.21,40.742,41.993,39.138,41.562z M34.468,70.954   c-0.288,0.409-1.272,0.662-1.924,0.829c-0.179,0.046-0.338,0.087-0.479,0.129c0.004-0.05,0.009-0.1,0.013-0.149   c0.078-0.969,0.101-1.974,0.117-2.959c0.477-0.045,1.531-0.204,3.176-0.751C35.301,68.82,35.093,70.066,34.468,70.954z    M35.727,66.894c-1.831,0.666-2.997,0.864-3.516,0.923c0.023-1.343,0.066-2.709,0.244-4.011c1.791-0.233,3.487-1.648,4.785-3.086   C37.388,62.852,37.291,66.324,35.727,66.894z M37.229,59.221c-1.174,1.467-2.878,3.193-4.618,3.566   c0.382-2.29,0.864-4.157,1.502-5.805h4.691C38.595,57.327,38.024,58.228,37.229,59.221z M94.021,54.669   c0,0.735-0.599,1.334-1.334,1.334H34.524c0.107-0.237,0.217-0.471,0.332-0.7c0.068-0.137,0.142-0.288,0.22-0.448   c0.505-1.033,1.268-2.594,2.044-3.198c0.396-0.324,0.791-0.58,1.172-0.828c0.746-0.484,1.517-0.984,2.283-1.98   c0.205-0.277,0.419-0.561,0.637-0.85c1.44-1.904,3.071-4.061,3.37-6.449l0.002-0.018c0.157-1.808-0.411-3.581-1.483-4.628   c-0.815-0.796-1.88-1.146-3.084-1.012c-1.599,0.185-2.831,1.344-3.899,2.634c-0.032,0.024-0.063,0.051-0.089,0.084   c-0.057,0.072-0.107,0.143-0.152,0.213c-0.247,0.309-0.486,0.622-0.719,0.927c-0.624,0.818-1.214,1.591-1.821,2.13   c-0.531,0.458-1.047,0.87-1.546,1.267c-1.774,1.412-3.306,2.632-4.444,5.083c-0.684,1.369-1.497,2.387-2.413,3.338v-27.21   l32.939,16.125c0.817,0.4,1.708,0.599,2.599,0.599c0.939,0,1.878-0.222,2.729-0.665l30.822-16.037V54.669z M94.021,23.278   L62.748,39.55c-1.383,0.72-3.045,0.74-4.445,0.055l-33.37-16.335v-1c0-0.735,0.599-1.334,1.334-1.334h66.42   c0.735,0,1.334,0.599,1.334,1.334V23.278z"/><path fill="#000000" d="M28.066,60.714c0.727-1.017,0.869-2.301,0.391-3.524c-0.099-0.252-0.383-0.376-0.634-0.278   s-0.376,0.382-0.277,0.634c0.361,0.922,0.263,1.845-0.276,2.598c-0.609,0.853-1.699,1.351-2.836,1.302   c-0.271-0.01-0.499,0.198-0.51,0.468c-0.012,0.27,0.198,0.498,0.467,0.51c0.066,0.003,0.131,0.004,0.197,0.004   C25.983,62.429,27.302,61.783,28.066,60.714z"/></g></svg>